<?xml version="1.0" encoding="UTF-8" standalone="no"?> <svg xmlns:inkscape="http://www.inkscape.org/namespaces/inkscape" xmlns:sodipodi="http://sodipodi.sourceforge.net/DTD/sodipodi-0.dtd" xmlns="http://www.w3.org/2000/svg" xmlns:svg="http://www.w3.org/2000/svg" width="614.81641pt" height="201.99248pt" viewBox="0 0 614.81643 201.99247" version="1.1" id="svg78" sodipodi:docname="DXG 54 Logo A Color.ai"><defs id="defs82"></defs><path fill-rule="nonzero" fill="#b32316" fill-opacity="1" d="m 254.12499,167.00392 c -0.67578,-0.52735 -1.88281,-0.89844 -3.11328,-0.89844 -4.67578,-0.0117 -7.66797,5.35156 -7.41015,10.39453 0.15234,3.17578 1.64843,4.94141 3.84375,4.95312 2.26172,0 4.8789,-2.375 5.64453,-7.40234 z m 10.12891,-18.03125 -3.87891,27.9414 c -0.46484,3.33203 -0.76953,7.08203 -0.71484,10.19141 l -7.09766,-0.008 0.16407,-4.2461 h -0.10938 c -2.13281,3.49219 -5.27734,4.83203 -8.39453,4.83203 -4.46094,-0.008 -8.28125,-3.54687 -8.61719,-9.96484 -0.46484,-9.125 5.69532,-17.55078 15.66016,-17.53516 1.05859,0 2.47656,0.21875 3.63281,0.65625 l 1.6875,-11.8789 z m 0,0" id="path2"></path><path fill-rule="nonzero" fill="#b32316" fill-opacity="1" d="m 279.5039,165.92579 c -3.58984,-0.008 -5.53516,2.99219 -5.94922,5.41016 6.08203,0.0703 9.05078,-0.72657 8.92969,-3.20703 -0.0703,-1.28907 -1.19141,-2.20313 -2.98047,-2.20313 m 7.84375,19.72266 c -2.98437,1.55468 -6.77734,2.08593 -9.72266,2.08593 -7.48046,-0.0117 -11.55468,-4.26562 -11.90234,-11.14453 -0.39844,-8.00781 4.98047,-16.30859 14.48438,-16.30078 5.30078,0.008 9.27343,3.00391 9.50781,7.90235 0.34765,6.67187 -6.02735,9.07421 -16.61328,8.76953 0.0976,0.76562 0.41797,1.95703 1.0039,2.70312 1.07422,1.34766 2.88282,2.04297 5.14844,2.04297 2.85547,0 5.22266,-0.63281 7.26563,-1.64453 z m 0,0" id="path4"></path><path fill-rule="nonzero" fill="#b32316" fill-opacity="1" d="m 301.28515,160.90235 1.73438,3.9375 c 0.92578,2.07813 1.49218,3.42969 1.89453,4.38672 h 0.17578 c 0.89453,-1.39062 1.55078,-2.55469 2.57031,-4.17969 l 2.69922,-4.13671 8.85156,0.0195 -10.40234,12.76953 6.80078,13.49609 -8.48047,-0.0117 -1.88672,-4.20312 c -0.85547,-1.87891 -1.32812,-3.21485 -1.90625,-4.77344 h -0.15234 c -0.70703,1.24219 -1.3125,2.57422 -2.40625,4.39844 l -2.9336,4.55859 -8.91015,-0.008 10.67187,-13.58203 -6.80859,-12.6875 z m 0,0" id="path6"></path><path fill-rule="nonzero" fill="#b32316" fill-opacity="1" d="m 336.46484,166.44532 c -0.59375,-0.11328 -1.29688,-0.21875 -2.10938,-0.22656 -4.98047,0 -8.32812,6.10937 -8.08203,11.00781 0.13281,2.57031 1.23828,4.33985 3.38672,4.35156 2.3125,0 5.02734,-2.61328 5.94531,-9.07421 z m -1.13281,20.77735 c -0.0391,-1.53907 0.0391,-3.33204 0.0586,-5.21094 h -0.11328 c -2.20703,4.34765 -5.50391,5.80859 -8.55469,5.79687 -4.74219,-0.008 -8.15234,-3.66015 -8.44141,-9.15234 -0.4414,-8.85547 4.98438,-18.30469 17.85547,-18.28516 3.17969,0 6.54688,0.59766 8.78125,1.28516 l -2.04297,13.76562 c -0.46093,3.38282 -0.75,8.53907 -0.44921,11.8125 z m 0,0" id="path8"></path><path fill-rule="nonzero" fill="#b32316" fill-opacity="1" d="m 373.89062,166.82032 c -0.625,-0.28125 -1.74219,-0.5 -2.82422,-0.5 -4.6875,-0.0117 -7.73437,5.21485 -7.47266,10.14844 0.11329,2.6875 1.40625,4.63281 3.76172,4.63281 2.53125,0.0156 4.91016,-2.85547 5.53516,-7.25 z m -16.83203,24.08985 c 1.49609,0.85937 4.69531,1.45703 6.95703,1.46484 3.85937,0 6.61719,-1.71094 7.48828,-6.97656 l 0.3125,-2.26172 h -0.10937 c -1.89844,2.69531 -4.21094,3.92187 -7.32422,3.92187 -5.19532,-0.0156 -8.59375,-4.26172 -8.89063,-9.41015 -0.52344,-8.67188 5.26953,-17.23828 16.71094,-17.22657 3.71094,0.008 6.96484,0.70704 9.83203,1.83204 l -2.86719,21.64843 c -0.6875,4.83203 -1.96875,9.13282 -4.94922,11.64844 -2.73437,2.26563 -6.51171,2.95313 -9.98828,2.95313 -3.5625,-0.0117 -6.82031,-0.66016 -8.69531,-1.67579 z m 0,0" id="path10"></path><path fill-rule="nonzero" fill="#b32316" fill-opacity="1" d="m 385.1289,187.29298 2.15625,-15.62891 c 0.53516,-3.98047 0.63672,-8.39062 0.79688,-10.63672 l 6.70312,0.008 c -0.0625,1.77734 -0.082,3.55859 -0.19922,5.38281 h 0.15625 c 1.69922,-3.5 4.48438,-5.94922 8.0625,-5.94922 0.5,0 0.97266,0 1.45313,0.0586 l -1.11719,7.50782 c -0.375,-0.0586 -0.78906,-0.0586 -1.21484,-0.0586 -4.94922,-0.008 -7.03516,4.39844 -7.74219,9.5625 l -1.32813,9.76953 z m 0,0" id="path12"></path><path fill-rule="nonzero" fill="#b32316" fill-opacity="1" d="m 413.37499,176.91407 c 0.16016,3.07422 1.76563,5.11719 4.5,5.125 4.12891,0 6.2461,-6.23437 6.00391,-10.69531 -0.10547,-2.42578 -1.32031,-4.98438 -4.36719,-4.99609 -4.47656,-0.008 -6.34765,6.48828 -6.13672,10.5664 m 18.52735,-5.60547 c 0.48437,9.60547 -5.76563,16.64844 -14.83594,16.62891 -6.66406,-0.008 -11.35547,-4.36328 -11.6875,-10.91406 -0.46484,-9.08594 5.48828,-16.59375 14.83984,-16.58203 7.03516,0.008 11.36329,4.84765 11.6836,10.86718" id="path14"></path><path fill-rule="nonzero" fill="#b32316" fill-opacity="1" d="m 462.14843,161.13673 -2.45312,17.72656 c -0.46485,3.33203 -0.73438,6.18359 -0.94141,8.53906 l -6.82422,-0.0117 0.26172,-4.24218 -0.10937,-0.0508 c -2.5,3.4414 -5.60157,4.89062 -8.76563,4.88281 -4.23437,0 -6.89844,-2.38672 -7.15234,-7.37891 -0.0625,-1.39844 0.0234,-3.0039 0.30078,-4.83203 l 2.05078,-14.66406 7.72656,0.004 -1.97265,14.07813 c -0.13672,1.23437 -0.24219,2.53125 -0.20704,3.49609 0.10547,1.67578 0.85938,3.00782 2.78516,3.01563 2.63672,0 5.16797,-3.16797 5.92188,-8.39063 l 1.67968,-12.17968 z m 0,0" id="path16"></path><path fill-rule="nonzero" fill="#b32316" fill-opacity="1" d="m 473.67578,180.91407 c 0.89453,0.77735 2.05859,1.25391 3.59765,1.25391 4.14453,0.0156 7.0625,-5.83203 6.8086,-10.9961 -0.10547,-2.10546 -1.14063,-4.30468 -3.60157,-4.30468 -2.90625,-0.008 -5.41797,3.22265 -6.125,8.36328 z m -10.19922,17.14844 3.74609,-26.76563 c 0.42969,-3.11328 0.77734,-7.67187 0.96875,-10.36718 l 6.92969,0.0117 -0.28516,4.03515 h 0.11328 c 1.98828,-2.84375 5.03907,-4.39844 8.20313,-4.38672 5.70312,0.0156 8.73828,4.58203 9.00781,10 0.47266,9.07422 -5.1875,17.45703 -14.36328,17.44532 -2.10156,-0.008 -3.95313,-0.5586 -4.88281,-1.07813 h -0.16797 l -1.53125,11.10549 z m 0,0" id="path18"></path><path fill-rule="nonzero" fill="#231f20" fill-opacity="1" d="m 269.71874,53.281255 c -0.17578,-4.726562 -0.35156,-10.445312 -0.35156,-16.164062 h -0.17187 c -1.22657,5.015624 -2.86328,10.617187 -4.37891,15.230468 l -4.78516,15.347654 h -6.94531 l -4.19922,-15.230466 c -1.28515,-4.613282 -2.625,-10.214844 -3.5625,-15.347656 h -0.11718 c -0.23047,5.308593 -0.40625,11.378906 -0.69922,16.28125 l -0.69922,14.937502 h -8.23047 l 2.51172,-39.332034 h 11.84765 l 3.85157,13.128906 c 1.22265,4.554688 2.44922,9.457032 3.32422,14.066407 h 0.17578 c 1.10937,-4.550781 2.44922,-9.746094 3.73437,-14.121094 l 4.20313,-13.074219 h 11.61328 l 2.15625,39.332034 h -8.69141 z m 0,0" id="path20"></path><path fill-rule="nonzero" fill="#231f20" fill-opacity="1" d="m 300.8789,54.855474 c -4.66797,-0.05859 -8.28906,1.050781 -8.28906,4.492187 0,2.277344 1.51953,3.386719 3.5039,3.386719 2.21485,0 4.02735,-1.460937 4.60938,-3.269531 0.11719,-0.464844 0.17578,-0.992188 0.17578,-1.515625 z m 1.05078,13.480471 -0.52734,-2.85938 h -0.17578 c -1.86719,2.27735 -4.78516,3.5 -8.16797,3.5 -5.77735,0 -9.21875,-4.19922 -9.21875,-8.749998 0,-7.414062 6.65234,-10.972656 16.74609,-10.914062 v -0.410156 c 0,-1.515625 -0.8164,-3.675782 -5.19531,-3.675782 -2.91406,0 -6.00781,0.992188 -7.875,2.160157 l -1.63672,-5.71875 c 1.98438,-1.109375 5.89453,-2.511719 11.08984,-2.511719 9.51172,0 12.54688,5.605469 12.54688,12.316406 v 9.917969 c 0,2.746094 0.11719,5.371095 0.40625,6.945315 z m 0,0" id="path22"></path><path fill-rule="nonzero" fill="#231f20" fill-opacity="1" d="m 326.78515,31.863286 c 0,2.449219 -1.80859,4.433594 -4.78125,4.433594 -2.80469,0 -4.61328,-1.984375 -4.61328,-4.433594 0,-2.566406 1.80859,-4.492187 4.72656,-4.492187 2.85938,0 4.61328,1.925781 4.66797,4.492187 m -16.16406,41.726559 c 2.33594,-0.17578 4.14453,-0.70312 5.2539,-1.86718 1.28125,-1.34375 1.75,-3.6211 1.75,-9.281254 V 39.800786 h 8.92969 v 24.742189 c 0,6.24609 -1.40234,10.03906 -4.02734,12.48828 -2.625,2.44922 -6.76953,3.50391 -11.02735,3.50391 z m 0,0" id="path24"></path><path fill-rule="nonzero" fill="#231f20" fill-opacity="1" d="m 360.39843,59.175786 c 0,3.734375 0.11719,6.769529 0.23438,9.160159 h -7.70313 l -0.41015,-4.027346 h -0.17188 c -1.10937,1.749996 -3.79297,4.667966 -8.92969,4.667966 -5.77734,0 -10.03906,-3.61718 -10.03906,-12.429685 V 39.800786 h 8.92969 v 15.347657 c 0,4.144531 1.34375,6.652343 4.43359,6.652343 2.45313,0 3.85156,-1.691406 4.4375,-3.09375 0.23047,-0.523437 0.28906,-1.226562 0.28906,-1.925781 V 39.800786 h 8.92969 z m 0,0" id="path26"></path><path fill-rule="nonzero" fill="#231f20" fill-opacity="1" d="m 388.40624,62.035161 c 0.875,0.113282 1.92579,0.113282 3.44532,0.113282 4.02734,0 7.58593,-1.515626 7.58593,-5.660157 0,-3.964843 -3.55859,-5.542969 -7.99609,-5.542969 h -3.03516 z m 0,-17.449218 h 2.91797 c 4.66797,0 7.17969,-1.925782 7.17969,-4.84375 0,-2.976563 -2.27734,-4.550782 -6.30469,-4.550782 -1.92578,0 -3.03125,0.117188 -3.79297,0.230469 z m -8.8125,-15.058594 c 2.33594,-0.464844 7.0625,-0.816406 11.4961,-0.816406 5.42969,0 8.7539,0.527343 11.61328,2.21875 2.74219,1.460937 4.72656,4.144531 4.72656,7.703124 0,3.5 -2.03906,6.769532 -6.47656,8.402344 v 0.117188 c 4.49219,1.226562 7.82031,4.609375 7.82031,9.6875 0,3.558594 -1.63281,6.359375 -4.08594,8.347656 -2.85937,2.27344 -7.64453,3.55859 -15.46484,3.55859 -4.375,0 -7.64453,-0.29296 -9.62891,-0.58593 z m 0,0" id="path28"></path><path fill-rule="nonzero" fill="#231f20" fill-opacity="1" d="m 432.17187,50.82813 c 0,-2.15625 -0.93359,-5.777344 -5.01953,-5.777344 -3.73438,0 -5.25,3.386719 -5.48438,5.777344 z m -10.44531,6.070313 c 0.29297,3.675781 3.91015,5.425781 8.05078,5.425781 3.03515,0 5.48828,-0.40625 7.8789,-1.164063 l 1.16797,6.007814 c -2.91797,1.16797 -6.47656,1.75391 -10.32812,1.75391 -9.6875,0 -15.23047,-5.601568 -15.23047,-14.531255 0,-7.238281 4.49219,-15.230469 14.41406,-15.230469 9.21875,0 12.71875,7.175782 12.71875,14.238282 0,1.515624 -0.17187,2.859374 -0.28906,3.5 z m 0,0" id="path30"></path><path fill-rule="nonzero" fill="#231f20" fill-opacity="1" d="m 445.71093,49.195317 c 0,-4.203124 -0.11719,-6.945312 -0.23437,-9.394531 h 7.64453 l 0.29297,5.25 h 0.23047 c 1.46093,-4.140625 4.96093,-5.890625 7.70312,-5.890625 0.82031,0 1.22656,0 1.86719,0.113282 v 8.347656 c -0.64063,-0.117188 -1.39844,-0.234375 -2.39063,-0.234375 -3.26953,0 -5.48437,1.75 -6.07031,4.492187 -0.11719,0.585938 -0.17578,1.285156 -0.17578,1.984375 v 14.472659 h -8.86719 z m 0,0" id="path32"></path><path fill-rule="nonzero" fill="#231f20" fill-opacity="1" d="m 467.82421,60.574224 c 1.63282,0.992187 5.01953,2.160156 7.64453,2.160156 2.6836,0 3.79297,-0.933594 3.79297,-2.390625 0,-1.460938 -0.875,-2.160156 -4.19922,-3.269531 -5.89453,-1.984375 -8.17187,-5.195313 -8.11328,-8.578125 0,-5.3125 4.55078,-9.339844 11.61328,-9.339844 3.32813,0 6.30079,0.761719 8.05469,1.636719 l -1.57812,6.125 c -1.28125,-0.699219 -3.73438,-1.632813 -6.1836,-1.632813 -2.16015,0 -3.38672,0.875 -3.38672,2.335938 0,1.339844 1.10938,2.039062 4.60938,3.265625 5.42969,1.867187 7.70312,4.609375 7.76172,8.8125 0,5.312501 -4.19922,9.218751 -12.3711,9.218751 -3.73437,0 -7.05859,-0.81641 -9.21875,-1.98047 z m 0,0" id="path34"></path><path fill-rule="nonzero" fill="#231f20" fill-opacity="1" d="m 508.38281,54.855474 c -4.67188,-0.05859 -8.28907,1.050781 -8.28907,4.492187 0,2.277344 1.51954,3.386719 3.50391,3.386719 2.21484,0 4.02344,-1.460937 4.60938,-3.269531 0.11718,-0.464844 0.17578,-0.992188 0.17578,-1.515625 z m 1.04687,13.480471 -0.52344,-2.85938 h -0.17578 c -1.86718,2.27735 -4.78515,3.5 -8.16797,3.5 -5.77734,0 -9.22265,-4.19922 -9.22265,-8.749998 0,-7.414062 6.65234,-10.972656 16.75,-10.914062 v -0.410156 c 0,-1.515625 -0.81641,-3.675782 -5.19531,-3.675782 -2.91797,0 -6.00782,0.992188 -7.87891,2.160157 l -1.63281,-5.71875 c 1.98437,-1.109375 5.89453,-2.511719 11.08984,-2.511719 9.51172,0 12.54688,5.605469 12.54688,12.316406 v 9.917969 c 0,2.746094 0.11328,5.371095 0.40625,6.945315 z m 0,0" id="path36"></path><path fill-rule="nonzero" fill="#231f20" fill-opacity="1" d="m 524.01953,48.902349 c 0,-3.558594 -0.11719,-6.59375 -0.23438,-9.101563 h 7.46875 l 0.41016,3.851563 h 0.17578 c 1.22265,-1.808594 3.73437,-4.492188 8.63672,-4.492188 3.67578,0 6.59375,1.867188 7.82031,4.839844 h 0.11719 c 1.05078,-1.457031 2.33203,-2.625 3.67578,-3.441406 1.57422,-0.933594 3.32422,-1.398438 5.42578,-1.398438 5.48437,0 9.62891,3.847656 9.62891,12.371094 v 16.80469 h -8.63672 v -15.52344 c 0,-4.140625 -1.33985,-6.535156 -4.20313,-6.535156 -2.03906,0 -3.5,1.398437 -4.08203,3.09375 -0.23437,0.640625 -0.35156,1.574218 -0.35156,2.277344 v 16.687502 h -8.63672 V 52.347661 c 0,-3.617187 -1.28516,-6.070312 -4.08594,-6.070312 -2.27344,0 -3.61719,1.75 -4.14062,3.210937 -0.29297,0.699219 -0.35157,1.515625 -0.35157,2.214844 v 16.632815 h -8.63671 z m 0,0" id="path38"></path><path fill-rule="nonzero" fill="#231f20" fill-opacity="1" d="m 589.37499,54.855474 c -4.66796,-0.05859 -8.28515,1.050781 -8.28515,4.492187 0,2.277344 1.51562,3.386719 3.5,3.386719 2.21875,0 4.02734,-1.460937 4.60937,-3.269531 0.11719,-0.464844 0.17578,-0.992188 0.17578,-1.515625 z m 1.05079,13.480471 -0.52344,-2.85938 h -0.17578 c -1.86719,2.27735 -4.78516,3.5 -8.17188,3.5 -5.77734,0 -9.21875,-4.19922 -9.21875,-8.749998 0,-7.414062 6.65235,-10.972656 16.7461,-10.914062 v -0.410156 c 0,-1.515625 -0.81641,-3.675782 -5.19141,-3.675782 -2.91797,0 -6.01172,0.992188 -7.87891,2.160157 l -1.63281,-5.71875 c 1.98438,-1.109375 5.89063,-2.511719 11.08594,-2.511719 9.51172,0 12.54687,5.605469 12.54687,12.316406 v 9.917969 c 0,2.746094 0.11719,5.371095 0.41016,6.945315 z m 0,0" id="path40"></path><path fill-rule="nonzero" fill="#231f20" fill-opacity="1" d="m 601.57031,75.281255 c 1.80859,-5.19531 3.38672,-11.261719 4.20312,-16.574219 l 9.04297,-0.582031 c -1.92578,5.953125 -4.55078,12.07813 -7.35156,16.62891 z m 0,0" id="path42"></path><path fill-rule="nonzero" fill="#231f20" fill-opacity="1" d="m 245.26562,105.03517 h 3.50391 c 4.43359,0 7.0625,-2.21875 7.0625,-5.660165 0,-3.62109 -2.45313,-5.42969 -6.53907,-5.48828 -2.16015,0 -3.38281,0.17578 -4.02734,0.29297 z m -8.80859,-16.925785 c 2.85937,-0.46485 7.11718,-0.81641 11.84375,-0.81641 5.83593,0 9.92187,0.875 12.72265,3.09375 2.33594,1.86719 3.61719,4.60937 3.61719,8.22656 0,5.019535 -3.55859,8.464845 -6.94141,9.687505 v 0.17578 c 2.74219,1.10938 4.25782,3.73438 5.25,7.35547 1.22657,4.43359 2.45313,9.57031 3.21094,11.08594 h -9.10547 c -0.64062,-1.10938 -1.57422,-4.31641 -2.74219,-9.16406 -1.05078,-4.89844 -2.74218,-6.24219 -6.35937,-6.30079 h -2.6875 v 15.46485 h -8.80859 z m 0,0" id="path44"></path><path fill-rule="nonzero" fill="#231f20" fill-opacity="1" d="m 286.46484,113.43751 c -4.66797,-0.0586 -8.28906,1.05078 -8.28906,4.49219 0,2.27734 1.51953,3.38672 3.5039,3.38672 2.21485,0 4.02735,-1.46094 4.60938,-3.26954 0.11718,-0.46484 0.17578,-0.99218 0.17578,-1.51562 z m 1.05078,13.48047 -0.52734,-2.85938 h -0.17579 c -1.86328,2.27735 -4.78515,3.5 -8.16796,3.5 -5.77735,0 -9.21875,-4.19922 -9.21875,-8.7539 0,-7.41016 6.65234,-10.96875 16.74609,-10.91016 v -0.41016 c 0,-1.51562 -0.81641,-3.67578 -5.19531,-3.67578 -2.91407,0 -6.00782,0.99219 -7.875,2.16016 l -1.63672,-5.71875 c 1.98437,-1.109385 5.89453,-2.511725 11.08984,-2.511725 9.51172,0 12.54688,5.601565 12.54688,12.312505 v 9.92188 c 0,2.74218 0.11718,5.37109 0.40625,6.94531 z m 0,0" id="path46"></path><path fill-rule="nonzero" fill="#231f20" fill-opacity="1" d="m 302.10156,98.382815 h 8.87109 v 28.535165 h -8.87109 z m 9.16406,-7.9375 c 0,2.45313 -1.86719,4.4336 -4.78516,4.4336 -2.80078,0 -4.66797,-1.98047 -4.61328,-4.4336 -0.0547,-2.5664 1.8125,-4.49218 4.67188,-4.49218 2.85937,0 4.66797,1.92578 4.72656,4.49218" id="path48"></path><path fill-rule="nonzero" fill="#231f20" fill-opacity="1" d="m 318.08984,85.484385 h 8.87109 v 16.281245 h 0.11719 c 0.93359,-1.22656 2.10156,-2.160155 3.5,-2.917965 1.28516,-0.69922 2.97656,-1.10938 4.60937,-1.10938 5.66016,0 9.98047,3.910165 9.98047,12.488285 v 16.69141 h -8.87109 v -15.69922 c 0,-3.73438 -1.28516,-6.30078 -4.60938,-6.30078 -2.33593,0 -3.79296,1.51562 -4.43359,3.09375 -0.23437,0.58203 -0.29297,1.33984 -0.29297,1.98437 v 16.92188 h -8.87109 z m 0,0" id="path50"></path><path fill-rule="nonzero" fill="#231f20" fill-opacity="1" d="m 373.17578,105.96876 c 0.76171,0.17578 1.6914,0.23047 2.97656,0.23047 4.72656,0 7.64453,-2.39063 7.64453,-6.417975 0,-3.61719 -2.50781,-5.77734 -6.94531,-5.77734 -1.8086,0 -3.03125,0.17578 -3.67578,0.35156 z m -8.8125,-17.859375 c 2.74609,-0.46485 6.59375,-0.81641 12.02343,-0.81641 5.48438,0 9.39453,1.05078 12.01953,3.15234 2.51172,1.98438 4.20313,5.25 4.20313,9.10156 0,3.851575 -1.28516,7.121105 -3.61719,9.339855 -3.03515,2.85937 -7.52734,4.14062 -12.78125,4.14062 -1.16797,0 -2.21875,-0.0547 -3.03515,-0.17187 v 14.0625 h -8.8125 z m 0,0" id="path52"></path><path fill-rule="nonzero" fill="#231f20" fill-opacity="1" d="m 413.85156,109.41017 c 0,-2.16016 -0.9336,-5.77735 -5.01953,-5.77735 -3.73438,0 -5.25391,3.38672 -5.48438,5.77735 z m -10.44922,6.07031 c 0.29297,3.67578 3.91015,5.42578 8.05469,5.42578 3.03515,0 5.48437,-0.40625 7.8789,-1.16797 l 1.16797,6.01172 c -2.91797,1.16797 -6.48047,1.75 -10.32812,1.75 -9.69141,0 -15.23438,-5.60156 -15.23438,-14.52734 0,-7.23829 4.49609,-15.234385 14.41406,-15.234385 9.22266,0 12.72266,7.179695 12.72266,14.242195 0,1.51562 -0.17578,2.85547 -0.28906,3.5 z m 0,0" id="path54"></path><path fill-rule="nonzero" fill="#231f20" fill-opacity="1" d="m 427.38671,85.484385 h 8.8711 v 41.433595 h -8.8711 z m 0,0" id="path56"></path><path fill-rule="nonzero" fill="#231f20" fill-opacity="1" d="m 470.33593,117.75392 c 0,3.73828 0.11719,6.76953 0.23438,9.16406 h -7.70313 l -0.41015,-4.02735 h -0.17188 c -1.10937,1.75 -3.79297,4.66797 -8.92969,4.66797 -5.77734,0 -10.03906,-3.61718 -10.03906,-12.42968 V 98.382815 h 8.92969 v 15.347665 c 0,4.14062 1.34375,6.65234 4.43359,6.65234 2.45313,0 3.85156,-1.6914 4.4375,-3.09375 0.23438,-0.52344 0.28906,-1.22656 0.28906,-1.92578 V 98.382815 h 8.92969 z m 0,0" id="path58"></path><path fill-rule="nonzero" fill="#231f20" fill-opacity="1" d="m 492.6289,113.43751 c -4.67187,-0.0586 -8.28906,1.05078 -8.28906,4.49219 0,2.27734 1.51953,3.38672 3.5039,3.38672 2.21485,0 4.02344,-1.46094 4.60938,-3.26954 0.11719,-0.46484 0.17578,-0.99218 0.17578,-1.51562 z m 1.04688,13.48047 -0.52344,-2.85938 h -0.17578 c -1.86719,2.27735 -4.78516,3.5 -8.16797,3.5 -5.77735,0 -9.22266,-4.19922 -9.22266,-8.7539 0,-7.41016 6.65235,-10.96875 16.75,-10.91016 v -0.41016 c 0,-1.51562 -0.8164,-3.67578 -5.19531,-3.67578 -2.91797,0 -6.00781,0.99219 -7.87891,2.16016 l -1.63281,-5.71875 c 1.98438,-1.109385 5.89453,-2.511725 11.08984,-2.511725 9.51172,0 12.54688,5.601565 12.54688,12.312505 v 9.92188 c 0,2.74218 0.11719,5.37109 0.40625,6.94531 z m 0,0" id="path60"></path><path fill-rule="nonzero" fill="#231f20" fill-opacity="1" d="m 508.26562,107.48438 c 0,-3.55859 -0.11719,-6.59375 -0.23438,-9.101565 h 7.70313 l 0.41016,3.906255 h 0.17187 c 1.16797,-1.80859 4.08594,-4.550785 8.8125,-4.550785 5.83594,0 10.21484,3.851565 10.21484,12.257815 v 16.92188 h -8.87109 v -15.81641 c 0,-3.67578 -1.28516,-6.18359 -4.49219,-6.18359 -2.45312,0 -3.91015,1.6914 -4.49609,3.32422 -0.23047,0.52734 -0.34766,1.40234 -0.34766,2.21875 v 16.45703 h -8.87109 z m 0,0" id="path62"></path><path fill-rule="nonzero" fill="#231f20" fill-opacity="1" d="m 560.60937,109.9961 c 0,-0.58593 -0.0586,-1.16797 -0.17578,-1.63672 -0.64063,-2.33203 -2.33203,-3.91015 -4.78516,-3.91015 -3.20703,0 -5.83594,2.91797 -5.83594,8.11328 0,4.25781 2.10157,7.58594 5.83594,7.58594 2.27735,0 4.08594,-1.51953 4.66797,-3.61719 0.23438,-0.64063 0.29297,-1.57813 0.29297,-2.33594 z m 9.10547,-11.613285 c -0.11719,1.808605 -0.23438,4.199225 -0.23438,8.460945 v 15.92969 c 0,5.48437 -1.10937,9.98047 -4.32031,12.83984 -3.14844,2.68359 -7.41016,3.5 -11.61328,3.5 -3.73438,0 -7.70313,-0.75781 -10.26953,-2.21484 l 1.75,-6.71094 c 1.80859,1.04687 4.96094,2.15625 8.28906,2.15625 4.19922,0 7.41016,-2.27344 7.41016,-7.52734 v -1.86719 h -0.11719 c -1.69141,2.39453 -4.43359,3.73437 -7.70313,3.73437 -7.0625,0 -12.07812,-5.71875 -12.07812,-13.94531 0,-9.16406 5.94922,-15.000005 12.95312,-15.000005 3.91016,0 6.35938,1.69531 7.82032,4.027345 h 0.11718 l 0.29297,-3.382815 z m 0,0" id="path64"></path><path fill-rule="nonzero" fill="#b32316" fill-opacity="1" d="m 63.734375,144.15235 -22.917969,24.24219 c -3.730469,4.10547 -9.019531,6.44141 -14.566406,6.44141 H -3.0438297e-7 L 22.917969,150.58985 c 3.726562,-4.10547 9.015625,-6.4414 14.5625,-6.4375 z m 0,0" id="path66"></path><path fill-rule="nonzero" fill="#f7931d" fill-opacity="1" d="M 198.2539,5.4416102e-6 175.33593,24.242193 c -3.73047,4.105468 -9.01953,6.445312 -14.5664,6.441406 h -26.25 L 157.43749,6.4375054 c 3.73047,-4.101562 9.01954,-6.44140596 14.5625,-6.4374999583898 z m 0,0" id="path68"></path><path fill-rule="nonzero" fill="#ed1c24" fill-opacity="1" d="m 125.54687,51.488286 -19.31641,20.796879 c -4.30078,4.6289 -10.332025,7.25781 -16.648425,7.25781 h -17.47266 v 50.214845 h -14.26562 c -7.61329,0 -13.78516,-6.17187 -13.78516,-13.78515 V 79.035165 l 27.5625,-27.546879 z m 0,0" id="path70"></path><path fill-rule="nonzero" fill="#ed1c24" fill-opacity="1" d="M 181.93359,124.85938 H 136.5039 c -8.67969,0 -15.71484,-7.03515 -15.71484,-15.71484 V 91.289065 c 0,-5.68359 2.25781,-11.13672 6.27734,-15.15625 L 148.84374,54.35938 v 42.449215 h 33.08985 z m 0,0" id="path72"></path><path fill-rule="nonzero" fill="#ed1c24" fill-opacity="1" d="m 196.12499,156.16407 -21.0664,21.06641 V 50.402349 c 0,-6.609375 2.625,-12.949219 7.30078,-17.625 l 20.75,-20.75 V 139.30079 c 0,6.32422 -2.51172,12.39063 -6.98438,16.86328" id="path74"></path><path fill-rule="nonzero" fill="#ed1c24" fill-opacity="1" d="m 128.13281,156.60157 c -2.08985,22.33985 -18.40235,40.38281 -40.457025,44.50391 -19.59766,3.66406 -38.47266,-4.27735 -49.632816,-19.12891 l 2.617187,-2.61719 c 7.964849,-7.96484 19.730469,-10.19531 30.402339,-6.58593 3.70313,1.2539 7.80079,1.54297 11.95313,0.64453 8.86328,-1.92188 15.73047,-9.31641 17.042965,-18.28906 1.46875,-10.03516 -3.847655,-19.05079 -12.042965,-23.125 -2.97266,-1.5 -6.3125,-2.32813 -9.84766,-2.32813 h -13.9414 V 101.6211 h 13.9414 c 2.10547,0 4.1836,0.12891 6.21485,0.39453 8.90625,1.09375 17.097645,4.54297 23.929675,9.69141 13.33594,10.05859 21.52735,26.59766 19.82032,44.89453" id="path76"></path></svg> 